<svg version="1.2" xmlns="http://www.w3.org/2000/svg" viewBox="0 0 37 37" width="37" height="37">
	<title>camera</title>
	<style>
		.s0 { fill: #ffffff } 
	</style>
	<path fill-rule="evenodd" class="s0" d="m5 1.7c-1.8 0-3.3 1.5-3.3 3.3v32h-1.7v-32c0-2.7 2.3-5 5-5h32v1.7z"/>
	<path class="s0" d="m33.8 9.5c0 1.7-1.3 3-3 3-1.6 0-2.9-1.3-2.9-3 0-1.6 1.3-2.9 2.9-2.9 1.7 0 3 1.3 3 2.9z"/>
	<path fill-rule="evenodd" class="s0" d="m17.9 32.8c-6 0-10.9-4.9-10.9-10.9 0-6 4.9-10.9 10.9-10.9 6 0 10.9 4.9 10.9 10.9 0 6-4.9 10.9-10.9 10.9z"/>
</svg>