<svg width="23" height="37" viewBox="0 0 23 37" fill="none" xmlns="http://www.w3.org/2000/svg">
<path fill-rule="evenodd" clip-rule="evenodd" d="M6.34854 1.63221C4.08403 1.63221 2.24831 3.4158 2.24831 5.61592V13.4545H0.568359V5.61592C0.568359 2.51436 3.15621 0 6.34854 0H14.0229V1.63221H6.34854Z" fill="white"/>
<path fill-rule="evenodd" clip-rule="evenodd" d="M7.29563 5.04547C6.36679 5.04547 5.61381 5.79844 5.61381 6.72729V33.6364C5.61381 34.5652 6.36679 35.3182 7.29563 35.3182H19.0684C19.9972 35.3182 20.7502 34.5652 20.7502 33.6364V6.72729C20.7502 5.79844 19.9972 5.04547 19.0684 5.04547H7.29563ZM3.932 6.72729C3.932 4.8696 5.43795 3.36365 7.29563 3.36365H19.0684C20.926 3.36365 22.432 4.8696 22.432 6.72729V33.6364C22.432 35.4941 20.926 37 19.0684 37H7.29563C5.43795 37 3.932 35.4941 3.932 33.6364V6.72729Z" fill="white"/>
</svg>
