<svg width="37" height="37" viewBox="0 0 37 37" fill="none" xmlns="http://www.w3.org/2000/svg">
<path fill-rule="evenodd" clip-rule="evenodd" d="M5.04545 1.68182C3.19738 1.68182 1.68182 3.19738 1.68182 5.04545V37H0V5.04545C0 2.26853 2.26853 0 5.04545 0H37V1.68182H5.04545Z" fill="white"/>
<path d="M24.7647 20.5183C24.7647 22.158 23.4613 23.4614 21.8215 23.4614C20.1818 23.4614 18.8784 22.158 18.8784 20.5183C18.8784 18.8785 20.1818 17.5751 21.8215 17.5751C23.4613 17.5751 24.7647 18.8785 24.7647 20.5183Z" fill="white"/>
<path fill-rule="evenodd" clip-rule="evenodd" d="M21.8216 6.0966C20.4661 6.0966 19.3829 7.17975 19.3829 8.53524C19.3829 9.89072 20.4661 10.9739 21.8216 10.9739C23.177 10.9739 24.2602 9.89072 24.2602 8.53524C24.2602 7.17975 23.177 6.0966 21.8216 6.0966ZM18.9625 8.53524C18.9625 6.94754 20.2339 5.67615 21.8216 5.67615C23.4092 5.67615 24.6806 6.94754 24.6806 8.53524C24.6806 10.1229 23.4092 11.3943 21.8216 11.3943C20.2339 11.3943 18.9625 10.1229 18.9625 8.53524Z" fill="white"/>
<path fill-rule="evenodd" clip-rule="evenodd" d="M21.6954 13.875C21.3006 13.875 20.9806 14.1951 20.9806 14.5898C20.9806 14.9846 21.3007 15.3046 21.6954 15.3046C22.0902 15.3046 22.4102 14.9846 22.4102 14.5898C22.4102 14.1951 22.0902 13.875 21.6954 13.875ZM20.5602 14.5898C20.5602 13.9628 21.0684 13.4546 21.6954 13.4546C22.3224 13.4546 22.8306 13.9628 22.8306 14.5898C22.8306 15.2168 22.3224 15.725 21.6954 15.725C21.0684 15.725 20.5602 15.2168 20.5602 14.5898Z" fill="white"/>
<path d="M10.5955 13.6648C13.3123 13.6648 15.5148 11.4624 15.5148 8.74549C15.5148 6.02863 13.3123 3.82617 10.5955 3.82617C7.8786 3.82617 5.67615 6.02863 5.67615 8.74549C5.67615 11.4624 7.8786 13.6648 10.5955 13.6648Z" fill="white"/>
<path d="M10.5955 25.4375C13.3123 25.4375 15.5148 23.2351 15.5148 20.5182C15.5148 17.8013 13.3123 15.5989 10.5955 15.5989C7.8786 15.5989 5.67615 17.8013 5.67615 20.5182C5.67615 23.2351 7.8786 25.4375 10.5955 25.4375Z" fill="white"/>
<path d="M10.5955 36.9579C13.3123 36.9579 15.5148 34.7554 15.5148 32.0386C15.5148 29.3217 13.3123 27.1193 10.5955 27.1193C7.8786 27.1193 5.67615 29.3217 5.67615 32.0386C5.67615 34.7554 7.8786 36.9579 10.5955 36.9579Z" fill="white"/>
</svg>
