<svg width="37" height="37" viewBox="0 0 37 37" fill="none" xmlns="http://www.w3.org/2000/svg">
<path fill-rule="evenodd" clip-rule="evenodd" d="M7.32296 5.78117C6.47152 5.78117 5.78129 6.4714 5.78129 7.32284V29.677C5.78129 30.5284 6.47152 31.2187 7.32296 31.2187H29.6771C30.5286 31.2187 31.2188 30.5284 31.2188 29.677V7.32284C31.2188 6.4714 30.5286 5.78117 29.6771 5.78117H7.32296ZM4.23962 7.32284C4.23962 5.61996 5.62008 4.2395 7.32296 4.2395H29.6771C31.38 4.2395 32.7605 5.61996 32.7605 7.32284V29.677C32.7605 31.3799 31.38 32.7603 29.6771 32.7603H7.32296C5.62008 32.7603 4.23962 31.3799 4.23962 29.677V7.32284Z" fill="white"/>
<path fill-rule="evenodd" clip-rule="evenodd" d="M12.1229 11.5447C11.8036 11.5447 11.5448 11.8035 11.5448 12.1228V24.877C11.5448 25.1963 11.8036 25.4551 12.1229 25.4551H24.8771C25.1964 25.4551 25.4553 25.1963 25.4553 24.877V12.1228C25.4553 11.8035 25.1964 11.5447 24.8771 11.5447H12.1229ZM10.3885 12.1228C10.3885 11.1649 11.1651 10.3884 12.1229 10.3884H24.8771C25.835 10.3884 26.6115 11.1649 26.6115 12.1228V24.877C26.6115 25.8349 25.835 26.6114 24.8771 26.6114H12.1229C11.1651 26.6114 10.3885 25.8349 10.3885 24.877V12.1228Z" fill="white"/>
<path fill-rule="evenodd" clip-rule="evenodd" d="M27.8368 31.2188C28.2625 31.2188 28.6076 31.5639 28.6076 31.9896V34.6875C28.6076 35.1132 28.2625 35.4583 27.8368 35.4583C27.411 35.4583 27.0659 35.1132 27.0659 34.6875V31.9896C27.0659 31.5639 27.411 31.2188 27.8368 31.2188Z" fill="white"/>
<path fill-rule="evenodd" clip-rule="evenodd" d="M21.6123 31.2188C22.038 31.2188 22.3831 31.5639 22.3831 31.9896V34.6875C22.3831 35.1132 22.038 35.4583 21.6123 35.4583C21.1865 35.4583 20.8414 35.1132 20.8414 34.6875V31.9896C20.8414 31.5639 21.1865 31.2188 21.6123 31.2188Z" fill="white"/>
<path fill-rule="evenodd" clip-rule="evenodd" d="M15.3878 31.2188C15.8135 31.2188 16.1586 31.5639 16.1586 31.9896V34.6875C16.1586 35.1132 15.8135 35.4583 15.3878 35.4583C14.9621 35.4583 14.6169 35.1132 14.6169 34.6875V31.9896C14.6169 31.5639 14.9621 31.2188 15.3878 31.2188Z" fill="white"/>
<path fill-rule="evenodd" clip-rule="evenodd" d="M9.16329 31.2188C9.58901 31.2188 9.93412 31.5639 9.93412 31.9896V34.6875C9.93412 35.1132 9.58901 35.4583 9.16329 35.4583C8.73757 35.4583 8.39246 35.1132 8.39246 34.6875V31.9896C8.39246 31.5639 8.73757 31.2188 9.16329 31.2188Z" fill="white"/>
<path fill-rule="evenodd" clip-rule="evenodd" d="M1.54169 27.9854C1.54169 27.5597 1.8868 27.2146 2.31252 27.2146H5.01044C5.43616 27.2146 5.78127 27.5597 5.78127 27.9854C5.78127 28.4112 5.43616 28.7563 5.01044 28.7563H2.31252C1.8868 28.7563 1.54169 28.4112 1.54169 27.9854Z" fill="white"/>
<path fill-rule="evenodd" clip-rule="evenodd" d="M1.54169 21.6619C1.54169 21.2362 1.8868 20.8911 2.31252 20.8911H5.01044C5.43616 20.8911 5.78127 21.2362 5.78127 21.6619C5.78127 22.0877 5.43616 22.4328 5.01044 22.4328H2.31252C1.8868 22.4328 1.54169 22.0877 1.54169 21.6619Z" fill="white"/>
<path fill-rule="evenodd" clip-rule="evenodd" d="M1.54169 15.338C1.54169 14.9123 1.8868 14.5671 2.31252 14.5671H5.01044C5.43616 14.5671 5.78127 14.9123 5.78127 15.338C5.78127 15.7637 5.43616 16.1088 5.01044 16.1088H2.31252C1.8868 16.1088 1.54169 15.7637 1.54169 15.338Z" fill="white"/>
<path fill-rule="evenodd" clip-rule="evenodd" d="M1.54169 9.01449C1.54169 8.58877 1.8868 8.24365 2.31252 8.24365H5.01044C5.43616 8.24365 5.78127 8.58877 5.78127 9.01449C5.78127 9.44021 5.43616 9.78532 5.01044 9.78532H2.31252C1.8868 9.78532 1.54169 9.44021 1.54169 9.01449Z" fill="white"/>
<path fill-rule="evenodd" clip-rule="evenodd" d="M31.2188 27.9854C31.2188 27.5597 31.5639 27.2146 31.9896 27.2146H34.6875C35.1132 27.2146 35.4583 27.5597 35.4583 27.9854C35.4583 28.4112 35.1132 28.7563 34.6875 28.7563H31.9896C31.5639 28.7563 31.2188 28.4112 31.2188 27.9854Z" fill="white"/>
<path fill-rule="evenodd" clip-rule="evenodd" d="M31.2188 21.6619C31.2188 21.2362 31.5639 20.8911 31.9896 20.8911H34.6875C35.1132 20.8911 35.4583 21.2362 35.4583 21.6619C35.4583 22.0877 35.1132 22.4328 34.6875 22.4328H31.9896C31.5639 22.4328 31.2188 22.0877 31.2188 21.6619Z" fill="white"/>
<path fill-rule="evenodd" clip-rule="evenodd" d="M31.2188 15.338C31.2188 14.9123 31.5639 14.5671 31.9896 14.5671H34.6875C35.1132 14.5671 35.4583 14.9123 35.4583 15.338C35.4583 15.7637 35.1132 16.1088 34.6875 16.1088H31.9896C31.5639 16.1088 31.2188 15.7637 31.2188 15.338Z" fill="white"/>
<path fill-rule="evenodd" clip-rule="evenodd" d="M31.2188 9.01449C31.2188 8.58877 31.5639 8.24365 31.9896 8.24365H34.6875C35.1132 8.24365 35.4583 8.58877 35.4583 9.01449C35.4583 9.44021 35.1132 9.78532 34.6875 9.78532H31.9896C31.5639 9.78532 31.2188 9.44021 31.2188 9.01449Z" fill="white"/>
<path fill-rule="evenodd" clip-rule="evenodd" d="M27.8368 1.54163C28.2625 1.54163 28.6076 1.88674 28.6076 2.31246V5.01038C28.6076 5.4361 28.2625 5.78121 27.8368 5.78121C27.411 5.78121 27.0659 5.4361 27.0659 5.01038V2.31246C27.0659 1.88674 27.411 1.54163 27.8368 1.54163Z" fill="white"/>
<path fill-rule="evenodd" clip-rule="evenodd" d="M21.6123 1.54163C22.038 1.54163 22.3831 1.88674 22.3831 2.31246V5.01038C22.3831 5.4361 22.038 5.78121 21.6123 5.78121C21.1865 5.78121 20.8414 5.4361 20.8414 5.01038V2.31246C20.8414 1.88674 21.1865 1.54163 21.6123 1.54163Z" fill="white"/>
<path fill-rule="evenodd" clip-rule="evenodd" d="M15.3878 1.54163C15.8135 1.54163 16.1586 1.88674 16.1586 2.31246V5.01038C16.1586 5.4361 15.8135 5.78121 15.3878 5.78121C14.9621 5.78121 14.6169 5.4361 14.6169 5.01038V2.31246C14.6169 1.88674 14.9621 1.54163 15.3878 1.54163Z" fill="white"/>
<path fill-rule="evenodd" clip-rule="evenodd" d="M9.16329 1.54163C9.58901 1.54163 9.93412 1.88674 9.93412 2.31246V5.01038C9.93412 5.4361 9.58901 5.78121 9.16329 5.78121C8.73757 5.78121 8.39246 5.4361 8.39246 5.01038V2.31246C8.39246 1.88674 8.73757 1.54163 9.16329 1.54163Z" fill="white"/>
</svg>
