<svg version="1.2" xmlns="http://www.w3.org/2000/svg" viewBox="0 0 37 37" width="37" height="37">
	<title>camera</title>
	<style>
		.s0 { fill: #ffffff } 
	</style>
	<path fill-rule="evenodd" class="s0" d="m32.8 36.4c1.8 0 3.3-1.5 3.3-3.3l0.1-32h1.7l-0.1 32c0 2.7-2.3 5-5 5l-32-0.2v-1.7z"/>
	<path class="s0" d="m21.8 5.5c0 1.7-1.3 3-3 3-1.6 0-2.9-1.3-2.9-3 0-1.6 1.3-2.9 2.9-2.9 1.7 0 3 1.3 3 2.9z"/>
	<path id="Layer copy 5" class="s0" d="m21.8 13.5c0 1.7-1.3 3-3 3-1.6 0-2.9-1.3-2.9-3 0-1.6 1.3-2.9 2.9-2.9 1.7 0 3 1.3 3 2.9z"/>
	<path id="Layer copy 6" class="s0" d="m21.8 21.5c0 1.7-1.3 3-3 3-1.6 0-2.9-1.3-2.9-3 0-1.6 1.3-2.9 2.9-2.9 1.7 0 3 1.3 3 2.9z"/>
	<path id="Layer copy 7" class="s0" d="m21.8 29.5c0 1.7-1.3 3-3 3-1.6 0-2.9-1.3-2.9-3 0-1.6 1.3-2.9 2.9-2.9 1.7 0 3 1.3 3 2.9z"/>
	<path id="Layer copy 8" class="s0" d="m30.8 5.5c0 1.7-1.3 3-3 3-1.6 0-2.9-1.3-2.9-3 0-1.6 1.3-2.9 2.9-2.9 1.7 0 3 1.3 3 2.9z"/>
	<path id="Layer copy 9" class="s0" d="m30.8 13.5c0 1.7-1.3 3-3 3-1.6 0-2.9-1.3-2.9-3 0-1.6 1.3-2.9 2.9-2.9 1.7 0 3 1.3 3 2.9z"/>
	<path id="Layer copy 10" class="s0" d="m30.8 21.5c0 1.7-1.3 3-3 3-1.6 0-2.9-1.3-2.9-3 0-1.6 1.3-2.9 2.9-2.9 1.7 0 3 1.3 3 2.9z"/>
	<path id="Layer copy" class="s0" d="m12.8 5.5c0 1.7-1.3 3-3 3-1.6 0-2.9-1.3-2.9-3 0-1.6 1.3-2.9 2.9-2.9 1.7 0 3 1.3 3 2.9z"/>
	<path id="Layer copy 2" class="s0" d="m12.8 13.5c0 1.7-1.3 3-3 3-1.6 0-2.9-1.3-2.9-3 0-1.6 1.3-2.9 2.9-2.9 1.7 0 3 1.3 3 2.9z"/>
	<path id="Layer copy 3" class="s0" d="m12.8 21.5c0 1.7-1.3 3-3 3-1.6 0-2.9-1.3-2.9-3 0-1.6 1.3-2.9 2.9-2.9 1.7 0 3 1.3 3 2.9z"/>
	<path id="Layer copy 4" class="s0" d="m12.8 29.5c0 1.7-1.3 3-3 3-1.6 0-2.9-1.3-2.9-3 0-1.6 1.3-2.9 2.9-2.9 1.7 0 3 1.3 3 2.9z"/>
</svg>