<svg width="37" height="37" viewBox="0 0 37 37" fill="none" xmlns="http://www.w3.org/2000/svg">
<path fill-rule="evenodd" clip-rule="evenodd" d="M19 0L19.9409 0.0889304C28.9201 0.937617 36.0624 8.07985 36.9111 17.0591L37 18H25.4064L25.2606 17.3203C24.6628 14.5325 22.4675 12.3372 19.6797 11.7394L19 11.5937V0ZM20.72 1.91647V10.2316C23.62 11.0959 25.9041 13.3801 26.7685 16.28H35.0835C33.9688 8.87997 28.12 3.03119 20.72 1.91647Z" fill="white"/>
<path fill-rule="evenodd" clip-rule="evenodd" d="M17.6615 0V11.3768L16.9945 11.5199C13.7719 12.2109 11.3561 15.0738 11.3561 18.5009C11.3561 22.4458 14.5541 25.6439 18.4991 25.6439C21.9261 25.6439 24.7891 23.228 25.4801 20.0054L25.6232 19.3384H37L36.9127 20.2617C36.0251 29.6524 28.1221 37 18.4991 37C8.28231 37 0 28.7176 0 18.5009C0 8.87794 7.34751 0.974883 16.7382 0.0872712L17.6615 0ZM15.9737 1.88063C7.88764 3.09859 1.68779 10.0752 1.68779 18.5009C1.68779 27.7855 9.21446 35.3122 18.4991 35.3122C26.9248 35.3122 33.9014 29.1123 35.1194 21.0262H26.9598C25.8733 24.6717 22.4993 27.3317 18.4991 27.3317C13.622 27.3317 9.66831 23.378 9.66831 18.5009C9.66831 14.5006 12.3283 11.1267 15.9737 10.0402V1.88063Z" fill="white"/>
</svg>
